HIERARCHY
ROOT hip
{
	OFFSET 0.000000 0.000000 0.000000 
	CHANNELS 6 Xposition Yposition Zposition Xrotation Zrotation Yrotation
	JOINT abdomen
	{
		OFFSET 0.000000 3.402643 0.000000 
		CHANNELS 3 Xrotation Zrotation Yrotation
		JOINT chest
		{
			OFFSET 0.000000 8.438565 -0.680529 
			CHANNELS 3 Xrotation Zrotation Yrotation
			JOINT neck
			{
				OFFSET 0.000000 10.207942 -0.272212 
				CHANNELS 3 Xrotation Zrotation Yrotation
				JOINT head
				{
					OFFSET 0.000000 3.130431 0.000000 
					CHANNELS 3 Xrotation Zrotation Yrotation
					End Site
					{
						OFFSET 0.000000 3.130435 0.000000 
					}
				}
			}
			JOINT lCollar
			{
				OFFSET 3.470700 6.669187 -0.816635 
				CHANNELS 3 Yrotation Zrotation Xrotation
				JOINT lShldr
				{
					OFFSET 3.198488 0.000000 0.000000 
					CHANNELS 3 Zrotation Yrotation Xrotation
					JOINT lForeArm
					{
						OFFSET 10.139888 0.000000 0.000000 
						CHANNELS 3 Yrotation Zrotation Xrotation
						JOINT lHand
						{
							OFFSET 8.370511 0.000000 0.000000 
							CHANNELS 3 Zrotation Yrotation Xrotation
							End Site
							{
								OFFSET 4.083176 0.000000 0.000000 
							}
						}
					}
				}
			}
			JOINT rCollar
			{
				OFFSET -3.470700 6.669187 -0.816635 
				CHANNELS 3 Yrotation Zrotation Xrotation
				JOINT rShldr
				{
					OFFSET -3.198488 0.000000 0.000000 
					CHANNELS 3 Zrotation Yrotation Xrotation
					JOINT rForeArm
					{
						OFFSET -10.139888 0.000000 0.000000 
						CHANNELS 3 Yrotation Zrotation Xrotation
						JOINT rHand
						{
							OFFSET -8.370511 0.000000 0.000000 
							CHANNELS 3 Zrotation Yrotation Xrotation
							End Site
							{
								OFFSET -4.083176 0.000000 0.000000 
							}
						}
					}
				}
			}
		}
	}
	JOINT lThigh
	{
		OFFSET 5.308129 -1.633274 1.361059 
		CHANNELS 3 Xrotation Zrotation Yrotation
		JOINT lShin
		{
			OFFSET -2.041588 -20.007561 0.000000 
			CHANNELS 3 Xrotation Zrotation Yrotation
			JOINT lFoot
			{
				OFFSET 0.000000 -19.190928 -1.224953 
				CHANNELS 3 Xrotation Yrotation Zrotation
				End Site
				{
					OFFSET 0.000000 -2.449906 4.627600 
				}
			}
		}
	}
	JOINT rThigh
	{
		OFFSET -5.308129 -1.633274 1.361059 
		CHANNELS 3 Xrotation Zrotation Yrotation
		JOINT rShin
		{
			OFFSET 2.041588 -20.007561 0.000000 
			CHANNELS 3 Xrotation Zrotation Yrotation
			JOINT rFoot
			{
				OFFSET 0.000000 -19.190928 -1.224953 
				CHANNELS 3 Xrotation Yrotation Zrotation
				End Site
				{
					OFFSET 0.000000 -2.449906 4.627600 
				}
			}
		}
	}
}
MOTION
Frames: 10
Frame Time: 0.033333
-0.427207 41.745674 0.545770 -4.111328 9.335938 53.193356 29.174183 -7.985791 -3.662916 15.039065 10.664063 14.591649 18.463385 -24.558426 -1.944015 -12.246093 10.419922 21.163876 2.000000 -2.000000 0.000000 -95.898438 68.623047 -61.503906 -29.121445 -54.096497 78.071182 15.899570 22.459080 -55.558193 -2.000000 2.000000 0.000000 -29.667969 77.148438 47.402100 -19.877806 -46.070431 -78.948166 -4.448709 24.381212 -84.839470 -17.537498 9.148743 19.051369 126.746780 7.017132 -1.063940 -3.944051 16.063225 11.588123 7.377520 -2.732342 0.145453 42.312840 2.493021 3.402379 -21.754536 -7.211312 -0.719969 
-0.411653 42.900448 1.161463 -4.990234 8.115234 55.128330 29.174183 -7.985791 -3.662916 14.179688 11.503906 14.728511 18.421125 -23.184362 -1.825348 -10.585938 11.699218 20.673830 2.000000 -2.000000 0.000000 -96.972656 64.873047 -57.901318 -38.744476 -46.946514 68.311249 16.313143 17.503986 -57.112160 -2.000000 2.000000 0.000000 -1.367187 78.486328 71.406059 -19.537790 -46.002964 -72.356339 -0.715577 21.750689 -83.872086 -20.946047 11.707697 19.527826 119.174232 9.683944 -0.713376 -5.527787 15.615523 11.322859 13.346409 -1.972556 0.307739 35.533405 2.479998 2.726145 -18.595133 -7.622284 2.065400 
-0.046174 44.220173 1.580868 -1.962891 6.464844 60.733517 29.174183 -7.985791 -3.662916 8.486329 10.146485 13.810314 22.514338 -19.403238 -1.549266 -10.712892 11.777344 17.128906 2.000000 -2.000000 0.000000 -88.798828 60.566410 -44.278599 -47.993378 -38.173340 59.997128 16.529396 9.303212 -59.751343 -2.000000 2.000000 0.000000 31.601564 61.806641 96.453926 -9.775104 -52.522392 -55.578564 5.298995 17.180218 -82.481262 -23.696951 8.434308 18.052996 106.131554 9.928148 -0.931194 -6.784626 11.960525 11.880132 17.214199 -4.257628 -0.385326 29.208054 3.876250 2.424122 -12.784420 -10.580039 4.112596 
0.260717 45.267883 1.679949 3.398438 2.490235 69.257813 29.174183 -7.985791 -3.662916 -0.791015 6.875001 11.895701 28.566187 -12.338818 -1.050841 -12.812501 9.570313 11.689137 2.000000 -2.000000 0.000000 -74.716797 55.107422 -25.302731 -56.959438 -31.173592 55.697247 15.491557 -2.022803 -62.912922 -2.000000 2.000000 0.000000 37.099606 34.726563 95.507813 7.335892 -57.598534 -31.138552 8.185802 13.016960 -81.855667 -26.568710 1.873586 15.665208 89.096718 8.329840 -1.380598 -7.465553 8.029674 11.586685 16.134890 -8.472747 -1.719303 28.237421 7.063333 3.059772 -6.755634 -15.023225 3.921605 
0.260717 45.267883 1.679949 3.398438 2.490235 69.257813 29.174183 -7.985791 -3.662916 -0.791015 6.875001 11.895701 28.566187 -12.338818 -1.050841 -12.812501 9.570313 11.689137 2.000000 -2.000000 0.000000 -74.716797 55.107422 -25.302731 -56.959438 -31.173592 55.697247 15.491557 -2.022803 -62.912922 -2.000000 2.000000 0.000000 37.099606 34.726563 95.507813 7.335892 -57.598534 -31.138552 8.185802 13.016960 -81.855667 -26.568710 1.873586 15.665208 89.096718 8.329840 -1.380598 -7.465553 8.029674 11.586685 16.134890 -8.472747 -1.719303 28.237421 7.063333 3.059772 -6.755634 -15.023225 3.921605 
1.645717 46.510979 3.103315 -3.437500 5.097657 88.311417 29.174183 -7.985791 -3.662916 -2.216796 7.558594 11.846988 37.518559 8.780038 0.449456 -14.941406 1.699219 0.000290 2.000000 -2.000000 0.000000 -47.910160 29.765627 6.904296 -75.233131 -27.714556 30.114389 9.927550 -18.057417 -64.865448 -2.000000 2.000000 0.000000 41.152344 -14.257813 87.351112 40.140827 -52.338638 10.064900 4.762530 10.689207 -82.043030 -10.081863 5.374063 18.452868 52.856800 5.173311 -1.127421 -8.650127 -2.074434 4.846799 23.041294 3.173134 1.776839 41.193794 5.859756 4.044013 -0.124644 -18.667067 20.719988 
1.710554 46.008396 3.111099 -3.847656 4.589844 97.197266 29.174183 -7.985791 -3.662916 -3.193360 5.576172 11.279299 36.109222 19.325237 1.294383 -14.248047 -2.675781 -5.732468 2.000000 -2.000000 0.000000 -46.953125 8.994142 16.456606 -81.530327 -22.255064 25.641357 10.994676 -16.640814 -65.315842 -2.000000 2.000000 0.000000 45.166016 -32.949219 80.912651 45.971439 -44.737507 14.852544 6.756476 12.238135 -81.542572 -6.198280 4.721973 18.468187 40.755878 -0.666705 -1.863178 -6.899561 1.577914 2.195359 17.316374 5.261968 2.399021 58.824139 6.268324 5.846572 -0.745073 -21.690933 21.488548 
1.686754 44.816338 3.120522 -4.169922 4.824219 106.103516 29.174183 -7.985791 -3.662916 -2.314454 3.437500 10.957032 31.625360 29.381945 2.273884 -12.822268 -6.884765 -13.115234 2.000000 -2.000000 0.000000 -53.554688 -18.398439 27.946136 -86.182259 -13.758412 19.256742 10.557841 -14.721238 -65.062576 -2.000000 2.000000 0.000000 51.044922 -50.419922 72.775681 50.167374 -36.774117 16.452559 8.378500 13.513227 -81.220016 -3.984359 4.306388 18.420744 37.824207 -3.865791 -2.477567 -6.616620 9.029943 9.132790 10.389531 6.610767 2.845975 77.722923 8.011431 7.988883 0.094218 -26.527981 22.507490 
1.510451 43.179585 3.237770 -4.423828 5.029297 113.857422 29.174183 -7.985791 -3.662916 -0.566406 1.572266 10.810816 24.688295 37.059883 3.185236 -11.054688 -9.990234 -21.806643 2.000000 -2.000000 0.000000 -62.226563 -43.974609 33.684624 -87.195450 -0.127535 13.726606 9.429986 -13.715939 -64.699341 -2.000000 2.000000 0.000000 61.660152 -64.423828 60.156250 52.808205 -30.035204 19.339321 9.210888 16.386028 -80.986496 -4.792084 5.013181 18.616890 43.294781 -3.398352 -2.626205 -10.151358 11.449882 19.621603 1.982453 6.630723 3.036686 96.447937 9.285722 9.643741 1.010711 -29.115263 20.683088 
1.219344 41.707100 3.327382 -3.837891 5.058594 118.692268 29.174183 -7.985791 -3.662916 1.435547 -0.302734 10.703074 18.170670 41.093914 3.751457 -9.843752 -11.552734 -28.906252 2.000000 -2.000000 0.000000 -66.699219 -68.613281 45.712894 -82.769615 20.786655 8.167022 9.739451 -15.060931 -65.121429 -2.000000 2.000000 0.000000 79.189453 -73.369141 41.689449 53.068581 -26.041056 24.831102 10.785251 19.249714 -80.454018 -6.757656 6.337532 18.970415 51.910275 -0.851680 -2.471310 -15.563204 9.255611 24.636497 -5.913052 5.151549 2.839648 111.343887 6.930681 9.830132 0.637921 -27.109350 16.463270 
